<svg width="168" height="122" viewBox="0 0 168 122" fill="none" xmlns="http://www.w3.org/2000/svg">
<g filter="url(#filter0_i_187_102)">
<path d="M117 0C118.933 5.6967e-05 120.5 1.56704 120.5 3.5V91H164C165.933 91.0001 167.5 92.567 167.5 94.5V118.007C167.5 119.854 166.046 121.493 164.046 121.506C159.646 121.534 141.035 121.649 123.698 121.699C115.031 121.724 106.675 121.733 100.572 121.706C97.5233 121.693 95.0235 121.67 93.3252 121.636C92.4832 121.619 91.8074 121.599 91.3535 121.573C91.1534 121.562 90.8968 121.545 90.6787 121.512C90.6182 121.502 90.5145 121.485 90.3936 121.454C90.353 121.444 89.9869 121.359 89.6045 121.106C89.4318 120.992 88.8838 120.607 88.6162 119.834C88.6151 119.831 88.6134 119.827 88.6123 119.824L77.9697 99H42.9209L37.6133 118.901C37.2047 120.433 35.8171 121.5 34.2314 121.5H8.80176C3.00938 121.5 -1.08605 115.833 0.731445 110.333L36.3994 2.40137L36.498 2.13867C37.0411 0.850994 38.3072 2.5209e-05 39.7227 0H117ZM88.3887 93.5166V108.396L91.9482 115.361L92.5889 116.616C92.8345 116.623 93.1132 116.63 93.4248 116.637C95.0822 116.67 97.5502 116.693 100.595 116.706C106.679 116.733 115.019 116.724 123.684 116.699C139.459 116.654 156.291 116.552 162.5 116.514V96H119C117.067 96 115.5 94.433 115.5 92.5V5H88.9834L88.3887 93.5166ZM60.5 32C59.1858 32 58.0174 32.8088 57.5459 34.0166L57.4619 34.2637L46.4893 70.998C45.8187 73.2428 47.5 75.5 49.8428 75.5H71.1572C73.5 75.4999 75.1812 73.2428 74.5107 70.998L63.5381 34.2637C63.1369 32.9205 61.9018 32 60.5 32Z" fill="url(#paint0_linear_187_102)"/>
</g>
<defs>
<filter id="filter0_i_187_102" x="0.295898" y="0" width="167.204" height="125.723" filterUnits="userSpaceOnUse" color-interpolation-filters="sRGB">
<feFlood flood-opacity="0" result="BackgroundImageFix"/>
<feBlend mode="normal" in="SourceGraphic" in2="BackgroundImageFix" result="shape"/>
<feColorMatrix in="SourceAlpha" type="matrix" values="0 0 0 0 0 0 0 0 0 0 0 0 0 0 0 0 0 0 127 0" result="hardAlpha"/>
<feOffset dy="4"/>
<feGaussianBlur stdDeviation="2"/>
<feComposite in2="hardAlpha" operator="arithmetic" k2="-1" k3="1"/>
<feColorMatrix type="matrix" values="0 0 0 0 0 0 0 0 0 0 0 0 0 0 0 0 0 0 0.25 0"/>
<feBlend mode="normal" in2="shape" result="effect1_innerShadow_187_102"/>
</filter>
<linearGradient id="paint0_linear_187_102" x1="83.898" y1="0" x2="83.898" y2="121.722" gradientUnits="userSpaceOnUse">
<stop stop-color="#24CD90"/>
<stop offset="1" stop-color="#14AD76"/>
</linearGradient>
</defs>
</svg>
